<svg xmlns="http://www.w3.org/2000/svg" viewBox="0 0 180 180">
  <rect width="180" height="180" rx="40" fill="#12100e"/>
  <g transform="translate(30, 30) scale(5)">
    <path d="M12 2C12 2 16 8 16 12C16 16 12 22 12 22C12 22 8 16 8 12C8 8 12 2 12 2Z" fill="none" stroke="#d4af37" stroke-width="1.5" stroke-linecap="round" stroke-linejoin="round"/>
    <path d="M12 22C12 22 17 18 20 15C23 12 20 8 18 8" fill="none" stroke="#d4af37" stroke-width="1.5" stroke-linecap="round" stroke-linejoin="round"/>
    <path d="M12 22C12 22 7 18 4 15C1 12 4 8 6 8" fill="none" stroke="#d4af37" stroke-width="1.5" stroke-linecap="round" stroke-linejoin="round"/>
  </g>
</svg>
